<?xml version="1.0" encoding="UTF-8"?>
<svg version="1.1" xmlns="http://www.w3.org/2000/svg" width="1024" height="1024">
<path d="M0 0 C337.92 0 675.84 0 1024 0 C1024 337.92 1024 675.84 1024 1024 C686.08 1024 348.16 1024 0 1024 C0 686.08 0 348.16 0 0 Z " fill="#050606" transform="translate(0,0)"/>
<path d="M0 0 C337.92 0 675.84 0 1024 0 C1024 337.92 1024 675.84 1024 1024 C686.08 1024 348.16 1024 0 1024 C0 686.08 0 348.16 0 0 Z M154.25 168.25 C143.16363564 181.61468906 134.47893622 197.3288417 128.75 213.6875 C128.51571289 214.33251465 128.28142578 214.9775293 128.04003906 215.64208984 C122.83610142 231.3696288 122.5619759 247.92305045 122.61904907 264.30233765 C122.61558463 266.4940405 122.61081483 268.68574161 122.60486734 270.87743914 C122.59243554 276.84825256 122.59849188 282.81892067 122.60782599 288.78973436 C122.61464851 295.24931311 122.6041194 301.70886788 122.59588623 308.16844177 C122.58276866 320.07418568 122.58439108 331.97988397 122.59262064 343.8856305 C122.60018794 354.88829333 122.60212783 365.89093938 122.5985527 376.89360428 C122.59832355 377.62540075 122.59809439 378.35719721 122.59785829 379.11116933 C122.59692417 382.08230733 122.59596896 385.05344533 122.594979 388.02458331 C122.58581555 415.85913019 122.5941005 443.69364793 122.61026969 471.5281903 C122.624502 496.21607478 122.62323356 520.90391281 122.60888672 545.59179688 C122.59279498 573.37466475 122.58646858 601.1575069 122.59572351 628.94037879 C122.59668555 631.90650725 122.59762408 634.87263572 122.5985527 637.83876419 C122.59878994 638.56901771 122.59902717 639.29927122 122.59927159 640.05165363 C122.60267283 651.04156743 122.59871405 662.03146254 122.59111404 673.02137375 C122.5825074 685.52873045 122.58502833 698.03603058 122.60095628 710.54338096 C122.60880784 716.9176349 122.61198402 723.29179494 122.60200882 729.66604805 C122.59299641 735.5137906 122.59810147 741.36135321 122.61394148 747.2090797 C122.61726181 749.31183067 122.61565811 751.4145972 122.60831411 753.51733796 C122.47561247 794.70863673 133.83479861 831.16587198 163 861 C163.69867188 861.74894531 164.39734375 862.49789062 165.1171875 863.26953125 C184.9042733 884.04994465 217.03435771 894.93122067 245.26503079 896.09323159 C247.65229251 896.12946454 250.03773707 896.13651249 252.42526817 896.13142776 C253.33492873 896.1334804 254.24458929 896.13553303 255.18181533 896.13764787 C258.22224737 896.14329089 261.26263373 896.14186396 264.30307007 896.14044189 C266.50818993 896.14302708 268.71330932 896.14604067 270.91842806 896.1494453 C276.97265815 896.15750058 283.02687638 896.15930405 289.08111119 896.16004276 C294.94201032 896.16170551 300.8029033 896.16802538 306.66379922 896.17412117 C322.3606599 896.19015799 338.05751958 896.196082 353.75438698 896.20086992 C361.18536542 896.20320838 368.61634308 896.20681132 376.04732092 896.2105653 C401.50218527 896.22339928 426.95704921 896.23411818 452.41191673 896.2375679 C454.00893074 896.23778953 455.60594474 896.23801132 457.20295874 896.23823325 C458.80375217 896.23845389 460.4045456 896.23867437 462.00533903 896.2388947 C465.21661274 896.23933724 468.42788645 896.23978436 471.63916016 896.24023438 C472.43536544 896.24034377 473.23157073 896.24045316 474.05190344 896.24056586 C499.85593301 896.24419469 525.65993444 896.26010895 551.46395324 896.28342474 C578.76819959 896.30805081 606.07242987 896.32174204 633.37668765 896.32293582 C636.37719957 896.32310726 639.3777115 896.32332269 642.37822342 896.32357025 C643.11699254 896.32362602 643.85576165 896.32368179 644.61691771 896.32373925 C656.4782842 896.32488732 668.3396217 896.3358886 680.20097842 896.35045731 C692.13602939 896.3648624 704.07104342 896.36803673 716.0061007 896.36001733 C722.46510329 896.35611934 728.92400886 896.35699886 735.38299942 896.37107468 C741.306278 896.38386452 747.22938717 896.38257157 753.15266569 896.37048396 C755.28529289 896.36853575 757.41793231 896.37156448 759.5505424 896.38032833 C775.94010117 896.44336758 791.8062476 895.07360367 807.6875 890.75 C808.4609375 890.54238037 809.234375 890.33476074 810.03125 890.12084961 C818.05414594 887.86317912 825.52225538 884.64926971 833 881 C834.01835938 880.505 835.03671875 880.01 836.0859375 879.5 C842.72533642 876.07801288 848.34474172 871.8550707 854 867 C854.80050781 866.34515625 855.60101562 865.6903125 856.42578125 865.015625 C883.97782231 841.63813561 897.51340303 806.12429647 901 771 C901.4752338 763.53569623 901.41140718 756.06041223 901.38768005 748.58450317 C901.39186397 746.40487358 901.39734724 744.22524616 901.40399987 742.04562271 C901.41833419 736.11739791 901.41424772 730.18931355 901.40683305 724.26108146 C901.40207371 717.84375981 901.4146355 711.42646735 901.42485046 705.00915527 C901.44158923 693.18460557 901.44349538 681.360098 901.43854547 669.53553924 C901.43397353 658.60737528 901.43460582 647.67922774 901.44038582 636.7510643 C901.44114271 635.28045337 901.44189869 633.80984244 901.44265376 632.33923151 C901.44379906 630.12267515 901.44494895 627.90611878 901.44611301 625.68956242 C901.45680424 605.10602928 901.46155737 584.52250156 901.45364285 563.93896675 C901.45334567 563.16448289 901.4530485 562.38999904 901.45274232 561.59204597 C901.45029383 555.30424019 901.44768202 549.01643448 901.44505819 542.72862878 C901.43495742 518.20821999 901.44331354 493.68787971 901.46655273 469.16748047 C901.4926714 441.56476373 901.50546114 413.96208821 901.49836498 386.35935867 C901.49764901 383.41176153 901.49697461 380.46416438 901.49632454 377.51656723 C901.49606983 376.42805291 901.49606983 376.42805291 901.49580997 375.31754839 C901.49351496 364.40280591 901.50144556 353.48810192 901.51461601 342.57336807 C901.52958103 330.14991441 901.52992712 317.72655686 901.5125451 305.30310477 C901.50406223 298.97311655 901.50181909 292.64329925 901.51719666 286.31332016 C901.53113453 280.5037489 901.52616466 274.69449354 901.50695742 268.88494013 C901.50322486 266.79836309 901.50603874 264.71176018 901.51656907 262.62520637 C901.70395893 222.60626746 889.09498758 187.69445388 861 159 C860.35160156 158.30132812 859.70320312 157.60265625 859.03515625 156.8828125 C854.55589524 152.14006555 849.44830595 148.55790888 844 145 C842.87851563 144.24396484 842.87851563 144.24396484 841.734375 143.47265625 C830.92901061 136.54472704 818.91697215 132.20437623 806.5 129.1875 C805.70746826 128.992771 804.91493652 128.79804199 804.09838867 128.59741211 C788.43699389 125.04177604 772.74911599 124.70665266 756.76853943 124.73257446 C754.56007755 124.72883091 752.35161699 124.7242266 750.1431585 124.71884382 C744.11664323 124.70668561 738.09018378 124.70686576 732.06365907 124.70923257 C726.21804529 124.70960037 720.37245031 124.70059749 714.52684393 124.69200679 C701.10553575 124.67273204 687.68424292 124.66704102 674.26292252 124.66589268 C663.89263096 124.6649712 653.52234536 124.66084214 643.15205574 124.65449142 C640.15967706 124.65269615 637.16729836 124.65091652 634.17491966 124.64914167 C633.05883501 124.64847852 633.05883501 124.64847852 631.9202032 124.64780198 C611.01016705 124.63550506 590.10013296 124.62759969 569.19009304 124.62848854 C568.40280746 124.6285197 567.61552187 124.62855086 566.80437915 124.62858296 C562.81470389 124.62874916 558.82502863 124.62894724 554.83535337 124.62915237 C553.64695265 124.62921221 553.64695265 124.62921221 552.43454383 124.62927325 C550.83238861 124.62935413 549.2302334 124.62943772 547.62807818 124.62952404 C522.71223385 124.630749 497.79644399 124.6157417 472.88061523 124.58837891 C444.84320159 124.55760014 416.80582374 124.54044988 388.76839215 124.54230535 C385.77381297 124.5424546 382.7792338 124.54255202 379.78465462 124.54261398 C379.04739462 124.54263729 378.31013462 124.5426606 377.55053341 124.54268462 C365.73149905 124.54274593 353.91251234 124.53002261 342.09349211 124.51274945 C330.19740709 124.49572427 318.30139112 124.49387269 306.40530061 124.5069681 C299.97192516 124.51347258 293.53872083 124.51370634 287.10536194 124.4962616 C281.19998079 124.48041414 275.29490478 124.4835125 269.38953055 124.50082986 C267.26916671 124.50387423 265.14877942 124.50036593 263.02844327 124.48910971 C222.15738663 124.28675141 181.66835402 136.3552803 154.25 168.25 Z " fill="#050506" transform="translate(0,0)"/>
<path d="M0 0 C2.21086104 -0.0023073 4.4217213 -0.00548563 6.63257998 -0.00945449 C12.67939324 -0.01777426 18.72614306 -0.01369001 24.77295649 -0.00748205 C30.63363762 -0.00341336 36.49430548 -0.00875776 42.35498477 -0.01377678 C55.07538867 -0.02428563 67.79577242 -0.0234044 80.51617822 -0.01761896 C91.65014806 -0.01258018 102.78411053 -0.011278 113.91808128 -0.01366425 C114.65773368 -0.01381702 115.39738608 -0.01396979 116.15945219 -0.01412719 C119.16226646 -0.01474991 122.16508073 -0.01538671 125.16789499 -0.01604671 C153.31782472 -0.02216009 181.46774166 -0.01662547 209.61766941 -0.00585292 C234.60007484 0.00363481 259.58245987 0.00279098 284.56486511 -0.0067749 C312.66005173 -0.01749683 340.75522703 -0.02172352 368.85041541 -0.01555037 C371.84856681 -0.01490899 374.84671821 -0.0142833 377.84486961 -0.01366425 C378.58304107 -0.01350609 379.32121254 -0.01334794 380.08175283 -0.01318499 C391.20373405 -0.01091497 402.32570707 -0.01356145 413.44768715 -0.01862335 C426.10275631 -0.02435444 438.75780225 -0.02288562 451.41286854 -0.01206186 C457.86555981 -0.00681867 464.31820979 -0.0047253 470.77090073 -0.01136017 C476.68582895 -0.01734992 482.60067787 -0.01399482 488.51559898 -0.00340506 C490.64736578 -0.00118379 492.77913938 -0.00227847 494.91090176 -0.00715664 C510.7078849 -0.0405125 526.1708239 0.65283755 541.5821991 4.44146729 C542.89510925 4.7618396 542.89510925 4.7618396 544.23454285 5.08868408 C576.78466655 13.41813791 601.78645548 34.79915161 618.83757019 63.33306885 C632.53873755 87.18481458 636.5579678 113.22898401 636.46315002 140.32215881 C636.46661386 142.50062423 636.47138326 144.67908789 636.47733176 146.85754794 C636.48977193 152.7964162 636.48370332 158.7351385 636.4743731 164.67400706 C636.46755404 171.09747497 636.47807803 177.52091869 636.48631287 183.94438171 C636.49943427 195.78522862 636.49780619 207.62602967 636.48957846 219.46687922 C636.48201252 230.40997384 636.48007063 241.35305159 636.48364639 252.2961483 C636.48399013 253.38770755 636.48399013 253.38770755 636.4843408 254.5013185 C636.48527492 257.45582698 636.48623013 260.41033545 636.48722009 263.36484391 C636.49638483 291.04732308 636.48809672 318.72977296 636.4719294 346.4122476 C636.45769847 370.96570437 636.45896411 395.51911444 636.47331238 420.0725708 C636.48940443 447.70197935 636.49573021 475.33136202 636.48647559 502.9607746 C636.48551354 505.91062939 636.48457501 508.86048418 636.48364639 511.81033897 C636.48329054 512.89971482 636.48329054 512.89971482 636.48292751 514.01109826 C636.47952625 524.94086049 636.48348512 535.87060392 636.49108505 546.80036354 C636.49969213 559.24003867 636.49716997 571.6796569 636.48124282 584.11932568 C636.47339158 590.4591433 636.47021448 596.79886652 636.48019028 603.13868332 C636.48920348 608.95500893 636.48409636 614.77115364 636.46825762 620.5874631 C636.46493759 622.67880392 636.46654027 624.77016039 636.47388498 626.86149094 C636.59546209 664.39168133 627.48393543 699.0642048 603.0821991 728.25396729 C602.65036316 728.77233154 602.21852722 729.2906958 601.77360535 729.82476807 C579.9438965 755.66252806 547.29819686 768.45591218 514.0821991 771.25396729 C510.94030984 771.38233511 507.80394065 771.39209359 504.65972424 771.38539505 C503.29568279 771.388474 503.29568279 771.388474 501.90408495 771.39161515 C498.86466222 771.39725815 495.82528518 771.39583125 492.78585815 771.39440918 C490.58145099 771.39699437 488.37704429 771.40000796 486.17263824 771.40341258 C480.12033876 771.41146788 474.06805115 771.41327134 468.01574695 771.41401005 C462.15666967 771.41567281 456.29759853 771.4219927 450.43852445 771.42808846 C434.74612406 771.44412559 419.05372466 771.45004941 403.36131754 771.45483721 C395.93200216 771.45717573 388.50268754 771.46077869 381.07337276 771.46453259 C355.6229476 771.47736687 330.17252286 771.48808552 304.72209454 771.49153519 C303.12533464 771.49175682 301.52857474 771.4919786 299.93181484 771.49220054 C298.33127945 771.49242118 296.73074406 771.49264166 295.13020867 771.49286199 C291.91946264 771.49330453 288.70871661 771.49375165 285.49797058 771.49420166 C284.30385879 771.49436575 284.30385879 771.49436575 283.08562353 771.49453315 C257.28858374 771.49816159 231.4915721 771.51407424 205.69454308 771.53739202 C178.39622715 771.56202151 151.0979273 771.5757095 123.79959995 771.5769031 C120.79935093 771.57707455 117.79910193 771.57728997 114.79885292 771.57753754 C113.69080038 771.57762119 113.69080038 771.57762119 112.56036294 771.57770653 C100.70291327 771.57885434 88.8454926 771.5898534 76.98805271 771.60442459 C65.05522485 771.61883413 53.12243395 771.62200154 41.18959977 771.61398461 C34.73249854 771.61008816 28.27549434 771.61095857 21.81840515 771.62504196 C15.89569107 771.63784116 9.97314635 771.63653077 4.0504323 771.62445125 C1.91913319 771.62250463 -0.21217817 771.62552422 -2.34346012 771.63429561 C-19.07558675 771.69874237 -35.91713985 770.73749577 -51.9803009 765.62896729 C-53.19580627 765.25046631 -53.19580627 765.25046631 -54.43586731 764.86431885 C-82.10368309 755.86465415 -104.34039179 738.89256231 -119.9178009 714.25396729 C-120.27422668 713.69386963 -120.63065247 713.13377197 -120.99787903 712.55670166 C-128.58063818 700.44942324 -133.99080263 687.4631465 -137.7303009 673.69146729 C-138.02263611 672.63246216 -138.02263611 672.63246216 -138.32087708 671.55206299 C-142.11406861 656.64510446 -142.20860605 641.5684741 -142.17849731 626.29893494 C-142.1815229 624.1083969 -142.18541441 621.91785992 -142.19008988 619.72732478 C-142.20032608 613.74590196 -142.19819927 607.76453936 -142.19390929 601.78311169 C-142.19143409 595.31738657 -142.20046604 588.85167566 -142.20794678 582.38595581 C-142.22109452 569.73374244 -142.22249576 557.08154807 -142.22014651 544.42932924 C-142.21830992 534.14192306 -142.22008113 523.85452309 -142.22437096 513.56711769 C-142.22497337 512.08624573 -142.22557457 510.60537376 -142.22617456 509.1245018 C-142.22708187 506.89264951 -142.22799054 504.66079721 -142.22890691 502.42894492 C-142.23732959 481.69359233 -142.24167685 460.95824206 -142.23750019 440.22288799 C-142.23734381 439.4421246 -142.23718744 438.66136121 -142.23702632 437.85693832 C-142.23622061 433.90021516 -142.23537483 429.94349201 -142.23451302 425.98676886 C-142.23434193 425.20102809 -142.23417085 424.41528731 -142.23399457 423.60573621 C-142.23364792 422.0167801 -142.23329939 420.427824 -142.23294899 418.83886789 C-142.2275925 394.11792662 -142.23552296 369.39702104 -142.25398254 344.67608643 C-142.27472442 316.86652715 -142.28542114 289.05698996 -142.28140706 261.24742252 C-142.28101175 258.27903641 -142.28065019 255.31065029 -142.28030968 252.34226418 C-142.28021895 251.61143631 -142.28012821 250.88060845 -142.28003473 250.12763429 C-142.27887156 239.12268993 -142.28549564 228.11776797 -142.2961216 217.11282921 C-142.30820198 204.58924326 -142.30942304 192.06570999 -142.29733143 179.54212316 C-142.29145367 173.15800898 -142.29031287 166.77399076 -142.30233383 160.38988304 C-142.31322915 154.53534465 -142.31004596 148.68098194 -142.29607215 142.82645164 C-142.29343527 140.71893426 -142.29575968 138.61140295 -142.30380801 136.5038993 C-142.44198373 97.59262347 -130.19000901 63.51492191 -102.9178009 35.25396729 C-85.05800968 17.32997419 -60.5785259 6.67559618 -35.9178009 2.25396729 C-35.01794773 2.08597697 -34.11809456 1.91798665 -33.1909731 1.74490571 C-22.1240204 -0.08674239 -11.18886992 -0.02551622 0 0 Z M-89.4178009 60.94537354 C-111.93343097 87.68268424 -115.25315296 117.22560065 -115.17176819 151.01339722 C-115.17407856 153.13385353 -115.17725892 155.25430903 -115.18122268 157.37476289 C-115.18949996 163.14385441 -115.1854779 168.91287897 -115.17925024 174.6819706 C-115.17469761 180.92606158 -115.18172333 187.17014159 -115.18721008 193.41423035 C-115.19556447 204.9192214 -115.19487601 216.42418292 -115.18938715 227.92917378 C-115.18434095 238.55944753 -115.18304964 249.18971355 -115.18543243 259.81998825 C-115.1855852 260.52719711 -115.18573797 261.23440597 -115.18589537 261.9630454 C-115.18651813 264.83436075 -115.18715493 267.70567609 -115.1878149 270.57699142 C-115.19392203 297.46825174 -115.18840303 324.35949864 -115.17762111 351.25075689 C-115.16812904 375.10632639 -115.16898215 398.96187453 -115.17854309 422.81744385 C-115.18926737 449.66492425 -115.19349084 476.51239283 -115.18731856 503.35987508 C-115.1866772 506.22510934 -115.18605151 509.09034359 -115.18543243 511.95557785 C-115.18527428 512.66099043 -115.18511612 513.366403 -115.18495318 514.09319171 C-115.18268463 524.71433876 -115.18532676 535.33547722 -115.19039154 545.95662308 C-115.19612506 558.03986236 -115.19445707 570.12307097 -115.18383005 582.20630933 C-115.1785908 588.36550323 -115.17648676 594.5246539 -115.18312836 600.68384743 C-115.18912607 606.3315122 -115.18575016 611.97909401 -115.17517325 617.62675135 C-115.17295536 619.66010688 -115.17403886 621.69346955 -115.17892483 623.72682042 C-115.2549894 658.03739499 -109.3614137 688.68151979 -84.9178009 714.25396729 C-84.30549622 714.9410376 -83.69319153 715.62810791 -83.06233215 716.33599854 C-64.57629107 736.31984252 -34.87959584 743.47343332 -8.6115694 744.52847552 C-3.01785376 744.67049962 2.57442603 744.65494288 8.16947937 744.63491821 C10.31341078 744.63838433 12.45734041 744.64315523 14.60126638 744.64909995 C20.43074353 744.66150859 26.26007147 744.65548623 32.08954883 744.64614129 C38.40048861 744.63930917 44.71140404 744.64985252 51.02233887 744.65808105 C62.64981783 744.67061005 74.27723702 744.66958115 85.9047174 744.66134665 C96.64960788 744.65377532 107.39448118 744.65184132 118.13937378 744.65541458 C118.85439661 744.65564374 119.56941943 744.65587289 120.30610962 744.65610899 C123.20922162 744.65704313 126.11233361 744.65799835 129.0154456 744.65898828 C156.20305615 744.66814829 183.39063686 744.65987192 210.5782428 744.64369759 C234.68911531 744.62946267 258.79994028 744.63073663 282.91081238 744.64508057 C310.05132033 744.66117323 337.19180195 744.66749845 364.33231401 744.65824378 C367.22988414 744.65728174 370.12745428 744.65634321 373.02502441 744.65541458 C373.73838712 744.65517735 374.45174983 744.65494012 375.18672959 744.6546957 C385.92017848 744.65129513 396.65360822 744.65525189 407.38705444 744.66285324 C419.60158394 744.67146079 431.81604312 744.66893696 444.03056896 744.65301101 C450.25496783 744.64516108 456.47927057 744.64198045 462.70366859 744.65195847 C468.41440159 744.66097417 474.12495039 744.65586057 479.83566695 744.64002581 C481.88856032 744.63670687 483.94146962 744.63830591 485.99435252 744.64565317 C520.67237323 744.76013117 554.80276688 738.4963741 580.62516785 713.82427979 C605.8317228 687.35956633 609.42005835 653.34453521 609.33616638 618.47003174 C609.33847675 616.34687602 609.34165711 614.2237211 609.34562087 612.10056782 C609.35389839 606.32393598 609.34987597 600.54737102 609.34364843 594.77073908 C609.33909584 588.51842981 609.34612154 582.2661315 609.35160828 576.01382446 C609.35996297 564.49311613 609.35927397 552.9724373 609.35378534 541.45172915 C609.3487388 530.80569763 609.34744798 520.15967383 609.34983063 509.51364136 C609.3499834 508.8053364 609.35013617 508.09703144 609.35029357 507.3672627 C609.35091632 504.49146288 609.35155313 501.61566307 609.35221309 498.73986327 C609.35832046 471.8052562 609.35280108 444.87066252 609.3420193 417.93605752 C609.33252928 394.04690308 609.33337858 370.15776997 609.34294128 346.26861572 C609.35366855 319.3808303 609.35788719 292.4930567 609.35171676 265.60526943 C609.3510754 262.73494403 609.35044971 259.86461862 609.34983063 256.99429321 C609.34967247 256.28763233 609.34951432 255.58097145 609.34935137 254.85289661 C609.34708385 244.21791699 609.34972308 233.58294596 609.35478973 222.94796753 C609.36052675 210.84612057 609.35884826 198.74430424 609.34822825 186.6424582 C609.34299323 180.47491546 609.34087759 174.30741586 609.34752655 168.1398735 C609.3535333 162.48223525 609.35013381 156.82467968 609.33957145 151.16704881 C609.33735729 149.13231181 609.33842839 147.09756766 609.34332302 145.06283534 C609.36534255 135.13949704 609.15595928 125.31774737 608.19523239 115.43544006 C608.11826614 114.63797574 608.0412999 113.84051141 607.96200134 113.0188815 C605.85248324 93.53471481 597.40994077 75.59041082 584.0821991 61.25396729 C583.42743591 60.52983643 583.42743591 60.52983643 582.75944519 59.79107666 C563.68717173 38.82839444 537.85006519 28.51421225 509.71451445 27.13816947 C503.27053039 26.95430547 496.82505012 26.98502484 490.37908936 27 C488.20377576 26.99769214 486.02846294 26.99451345 483.85315174 26.99054551 C477.90928099 26.98223349 471.96547486 26.98630641 466.02160394 26.99251795 C459.59818429 26.99705621 453.1747755 26.99005185 446.75135803 26.98455811 C434.90646614 26.97580264 423.0615946 26.97689944 411.21670152 26.98238104 C400.27184523 26.98742097 389.32699643 26.98872146 378.38213921 26.98633575 C377.29126171 26.9861066 377.29126171 26.9861066 376.17834629 26.98587281 C373.22585462 26.98525009 370.27336296 26.98461329 367.3208713 26.98395329 C339.64817651 26.97784115 311.97549474 26.98337278 284.30280196 26.99414708 C259.74317671 27.00363663 235.18357221 27.00278919 210.62394714 26.9932251 C183.00193731 26.98250427 155.37993898 26.9782757 127.75792736 26.98444963 C124.81064316 26.98509101 121.86335896 26.9857167 118.91607475 26.98633575 C118.19043072 26.98649391 117.46478669 26.98665206 116.71715345 26.98681501 C105.78264994 26.98908529 94.84815477 26.98643811 83.91365242 26.98137665 C71.4737733 26.97564691 59.03391948 26.97730325 46.5940432 26.98793814 C40.25083303 26.99318279 33.90766487 26.99527215 27.56445503 26.98863983 C21.75077497 26.98265326 15.93717564 26.98600001 10.12350284 26.99659494 C8.02744972 26.99881752 5.93138968 26.99771853 3.83534104 26.99284336 C-31.17288317 26.91770413 -64.73752527 34.3755143 -89.4178009 60.94537354 Z " fill="#FDFCFB" transform="translate(264.9178009033203,124.74603271484375)"/>
<path d="M0 0 C11.54712502 4.35910213 23.19760725 8.31795846 34.9375 12.125 C35.79443451 12.40311523 36.65136902 12.68123047 37.53427124 12.96777344 C49.4563207 16.82673224 61.41109657 20.54363913 73.4921875 23.87744141 C84.69350327 27.05176165 95.29010655 31.69283851 102.31640625 41.40625 C107.43526066 50.6239657 107.22847907 61.64609607 107.24246025 71.89317894 C107.24620053 74.10614604 107.26313664 76.31869431 107.28321838 78.53157043 C107.33785616 84.81645742 107.36890812 91.10140684 107.39379883 97.38647461 C107.48441486 118.2137304 108.23909803 138.46152043 112.125 159 C114.51959205 172.93775375 113.74142514 187.80098117 105.3828125 199.73828125 C100.16357713 206.10010598 94.28769541 209.44666208 86.85449219 212.7434082 C70.5211869 220.08211456 57.63531567 231.97668506 44.63671875 244.015625 C41.81189433 246.61560811 38.93352181 249.14044743 36.02734375 251.6484375 C34.45327052 253.04303696 32.90852802 254.47084684 31.37890625 255.9140625 C-3.03362992 288.31881162 -3.03362992 288.31881162 -24.34765625 287.86328125 C-52.46899743 285.11324473 -80.73995997 268.26386617 -104.0625 253.20898438 C-106.05842147 251.92449976 -108.06032069 250.64970096 -110.0625 249.375 C-110.6296875 249.00391113 -111.196875 248.63282227 -111.78125 248.25048828 C-125.2263107 239.69621583 -140.11915307 233.82511061 -154.8815918 227.99731445 C-176.21845252 219.54374897 -176.21845252 219.54374897 -181.375 211.125 C-191.08679223 187.71823809 -186.64971544 164.04008497 -182.93191528 139.8820343 C-180.76778834 125.81326899 -179.41543182 111.84705841 -178.61328125 97.63671875 C-176.2950617 56.71550378 -176.2950617 56.71550378 -169.0625 49.5 C-162.23327726 43.62949507 -154.05189589 40.86256147 -145.72827148 37.82324219 C-129.21053391 31.70481548 -113.62390794 23.4723449 -98.24389648 14.94384766 C-63.2955194 -4.32252479 -38.17538432 -14.41507999 0 0 Z " fill="#F8F6F5" transform="translate(687.0625,254.5)"/>
<path d="M0 0 C3.51866462 0.28662592 7.03829873 0.55847921 10.55840206 0.82677174 C55.21845376 4.24987444 55.21845376 4.24987444 65.15405273 14.34106445 C80.86059416 34.17702523 85.18776939 62.1065996 90.52905273 86.02856445 C91.55402869 90.61590405 92.59688606 95.19854632 93.65405273 99.77856445 C93.97998413 101.26694824 93.97998413 101.26694824 94.3125 102.78540039 C96.42651582 111.89648888 99.3463729 120.77929815 107.52905273 126.02856445 C115.1463869 129.70744794 123.02308084 131.35557714 131.27905273 132.96606445 C166.40233315 140.18861102 166.40233315 140.18861102 176.52905273 155.02856445 C180.07464394 161.59007014 181.64724593 167.19488956 181.69018555 174.65795898 C181.69515045 175.31547653 181.70011536 175.97299408 181.70523071 176.6504364 C181.71980545 178.82076071 181.72664841 180.99101179 181.73217773 183.16137695 C181.73500511 183.90647396 181.73783249 184.65157097 181.74074554 185.41924667 C181.75572368 189.36649682 181.76496028 193.31371058 181.76928711 197.26098633 C181.7747528 201.31582275 181.79874413 205.37032015 181.82725906 209.42505074 C181.84599799 212.56170583 181.85109711 215.69828133 181.85262299 218.83498764 C181.85562749 220.32834592 181.86358052 221.82170354 181.87680817 223.31500626 C181.97628498 235.41419925 181.08152448 246.73085658 172.52905273 256.02856445 C165.25618759 261.42090684 159.51849547 263.17944859 150.52905273 263.1262207 C149.14504524 263.1240303 149.14504524 263.1240303 147.733078 263.12179565 C145.72295602 263.1179844 143.71283742 263.11186235 141.70272827 263.10372925 C138.49419487 263.09092535 135.28570312 263.08443665 132.07714844 263.07958984 C124.08500043 263.06623262 116.09289047 263.04237728 108.10076904 263.01818848 C100.3060359 262.99497613 92.5113144 262.97631615 84.71655273 262.96606445 C83.62956715 262.96460608 82.54258156 262.9631477 81.42265701 262.96164513 C68.64290795 262.95092237 55.90630072 263.06797474 43.13851929 263.65705872 C29.11046522 264.28065715 15.06882456 264.21579697 1.02954102 264.21386719 C-2.23158246 264.21378541 -5.49256698 264.22083238 -8.75366211 264.234375 C-76.03128495 264.50906108 -76.03128495 264.50906108 -96.30786133 245.40478516 C-111.32821361 230.48187029 -115.76179182 209.49438123 -115.88439941 189.0080719 C-115.88219233 187.30452007 -115.87469952 185.60096731 -115.86206055 183.89746094 C-115.84624216 181.38784977 -115.86186563 178.87991829 -115.88110352 176.37036133 C-115.89063691 167.71309263 -115.43988918 159.26229286 -114.37634277 150.66838074 C-111.73342574 129.07035014 -112.16343753 107.48377241 -112.32324219 85.75939941 C-112.38334679 77.20677278 -112.41684474 68.65401126 -112.44900894 60.10124207 C-112.46263396 57.16764332 -112.48425196 54.23419697 -112.5072937 51.30065918 C-112.5377656 46.78133655 -112.53251266 42.26354508 -112.49306488 37.74429321 C-112.47787478 35.87916496 -112.4703801 34.01396301 -112.46933746 32.14877319 C-112.45949239 29.29416648 -112.40820298 26.4430164 -112.34643555 23.58911133 C-112.34907347 22.73100105 -112.35171139 21.87289078 -112.35442924 20.98877716 C-112.17579566 15.39814954 -110.88525208 12.45529937 -107.01199627 8.40311146 C-101.49150744 3.47908155 -95.01661312 3.18750577 -87.95922852 2.4230957 C-86.83638962 2.29416428 -85.71355072 2.16523285 -84.5566864 2.03239441 C-82.17774385 1.76224608 -79.79814347 1.49783726 -77.41796875 1.23876953 C-73.83916308 0.84716112 -70.26359957 0.43248366 -66.68774414 0.01489258 C-44.09849667 -2.55726209 -22.60912079 -1.84216211 0 0 Z " fill="#FCFBF9" transform="translate(302.470947265625,560.971435546875)"/>
<path d="M0 0 C7.91886012 0.9113325 15.7988039 0.46734689 23.70996094 -0.30981445 C61.02526004 -3.92186188 108.08232513 -6.48391539 142.49609375 10.40234375 C143.51630615 10.89226807 143.51630615 10.89226807 144.55712891 11.39208984 C146.84054698 12.49770823 149.10724732 13.63222909 151.37109375 14.77734375 C152.08531494 15.12821045 152.79953613 15.47907715 153.53540039 15.84057617 C164.18917847 21.40467482 167.9150597 30.4092416 171.55859375 41.33984375 C177.41796385 61.32654886 181.1310091 86.71100106 170.87109375 105.77734375 C163.99691909 116.17284807 153.42178856 120.252102 141.9375 123.84375 C124.15058219 129.43679367 107.75455218 137.43050539 91.37109375 146.27734375 C69.31939654 158.14363339 49.05795667 160.60682488 24.3515625 158.9453125 C21.5874111 158.76162549 18.8230714 158.58105157 16.05859375 158.40234375 C15.33529877 158.35477936 14.61200378 158.30721497 13.86679077 158.25820923 C1.44260335 157.47314289 -10.95825757 157.32258412 -23.40234375 157.33984375 C-24.19394709 157.3408609 -24.98555042 157.34187805 -25.80114174 157.34292603 C-33.88833152 157.35635025 -41.97518158 157.39268018 -50.06211472 157.45845032 C-53.14013314 157.48199991 -56.21816781 157.49811202 -59.29623795 157.51321411 C-61.4368908 157.52698795 -63.57720466 157.55224591 -65.71774292 157.57788086 C-75.75924881 157.62818426 -83.18993049 157.461815 -90.7421875 150.33984375 C-95.86416069 144.70680893 -97.63710517 139.14402172 -97.61035156 131.64111328 C-97.60847839 130.46281952 -97.60660522 129.28452576 -97.60467529 128.07052612 C-97.59720276 126.78010406 -97.58973022 125.48968201 -97.58203125 124.16015625 C-97.57723174 122.78435378 -97.57278525 121.40855003 -97.56866455 120.03274536 C-97.55857828 117.05993296 -97.54484959 114.08716466 -97.52856445 111.11437988 C-97.51129801 107.95089118 -97.49748387 104.78742005 -97.48706055 101.62390137 C-97.45660283 92.42339678 -97.40530397 83.22342186 -97.31998444 74.02325058 C-97.28015042 69.68393757 -97.24805649 65.34484655 -97.23291016 61.00537109 C-97.21766194 56.70293895 -97.18317047 52.40104222 -97.13559723 48.09885025 C-97.12097609 46.49081189 -97.11287658 44.88269796 -97.1120224 43.27459335 C-97.09572048 28.04489345 -94.65002777 14.92735464 -83.81640625 3.58984375 C-61.94097519 -10.85619563 -24.29310679 -4.14364029 0 0 Z " fill="#FCFBFA" transform="translate(289.50390625,375.59765625)"/>
<path d="M0 0 C1.2633165 -0.00817749 2.526633 -0.01635498 3.82823181 -0.02478027 C7.99508588 -0.05080451 12.16194889 -0.06630568 16.32885742 -0.08056641 C17.77851552 -0.0859374 19.2281736 -0.0913149 20.67783165 -0.09669876 C26.72673205 -0.11831425 32.77563004 -0.13703453 38.82455921 -0.14832115 C47.40553868 -0.16445178 55.98605772 -0.19737586 64.56686383 -0.254722 C70.64556356 -0.29391357 76.72414291 -0.31301181 82.80296534 -0.31824172 C86.40892742 -0.32183399 90.01439679 -0.33317338 93.62021828 -0.36634445 C111.59002035 -0.5235802 128.50164467 0.90360521 146.11295128 4.5857048 C166.15131108 8.62928156 185.98311318 8.47419894 206.30932617 8.19287109 C211.53374627 8.12124598 216.75789056 8.06054315 221.98269081 8.02505493 C224.03453496 8.00600035 226.08545495 7.96855301 228.13700867 7.92993164 C238.62652438 7.84784054 249.53882013 8.24783499 257.43432617 15.96240234 C270.28701298 32.95056014 267.16748506 60.07635632 264.53637695 79.94848633 C263.43980931 87.31547195 261.82754628 93.65793354 258.12182617 100.19287109 C257.7531543 100.85931641 257.38448242 101.52576172 257.00463867 102.21240234 C249.93325723 113.40469228 236.34474806 119.52510458 223.89526367 122.34912109 C214.27584862 124.49659967 204.99768157 124.68790293 195.18432617 124.50537109 C193.57691609 124.49382571 191.96949227 124.4840568 190.36206055 124.47607422 C184.12784156 124.42732864 177.93101026 124.35073207 171.72729492 123.68505859 C164.19089328 122.90009143 156.61958201 123.00688101 149.05053711 123.00756836 C146.44651617 123.00543236 143.84295706 122.98737186 141.23901367 122.96826172 C130.59675915 122.93407223 120.06420009 123.42235042 109.44995117 124.18896484 C92.94113755 125.35633647 76.48569592 125.50845442 59.94076157 125.45021439 C57.58384612 125.44275082 55.22695108 125.4391557 52.87002563 125.43649292 C29.24550689 125.40433552 5.6869086 125.00596261 -17.87817383 123.19287109 C-18.92763184 123.12704834 -19.97708984 123.06122559 -21.05834961 122.9934082 C-30.35067436 122.33301224 -38.26364531 119.4127157 -44.81567383 112.50537109 C-54.67835015 99.90038965 -56.00828043 84.34035665 -56.08129883 68.92724609 C-56.0869989 67.97199036 -56.09269897 67.01673462 -56.09857178 66.03253174 C-56.10796228 64.02234993 -56.11453187 62.01215313 -56.1184082 60.00195312 C-56.12810302 56.96505222 -56.1591795 53.92883223 -56.19067383 50.89208984 C-56.344392 22.80257848 -56.344392 22.80257848 -47.87817383 13.19287109 C-34.7073388 0.82900189 -17.12236922 0.06198978 0 0 Z " fill="#FCFAF9" transform="translate(567.878173828125,699.80712890625)"/>
<path d="M0 0 C0.68816299 0.13600113 1.37632599 0.27200226 2.08534241 0.41212463 C3.94230682 0.78420953 5.79637039 1.17069228 7.65014648 1.55834961 C17.41246876 3.33177789 27.2673382 3.33742658 37.15380859 3.21484375 C39.72607024 3.1973225 42.29833612 3.1804147 44.87060547 3.1640625 C48.86141392 3.13323033 52.85187075 3.09776074 56.8425293 3.05126953 C84.56762893 2.74624031 111.71464662 4.06620982 133.17333984 24.03515625 C137.77038037 28.88592953 140.51803903 33.9273818 142.67333984 40.22265625 C143.18695068 41.59647461 143.18695068 41.59647461 143.7109375 42.99804688 C145.40179719 49.01600399 145.00255861 55.35525838 145.00927734 61.5546875 C145.01571638 62.95562369 145.02244553 64.35655858 145.02944946 65.75749207 C145.0413836 68.68674839 145.04513432 71.61588712 145.04394531 74.54516602 C145.04374241 78.2738712 145.07103153 82.00181181 145.10548973 85.73033619 C145.12787598 88.62252676 145.13177929 91.51453676 145.13072586 94.40680504 C145.13306473 95.78015461 145.14179009 97.15351049 145.15739059 98.52677345 C145.27636344 110.08127506 143.64517908 118.91048306 135.50537109 127.41015625 C134.90080078 128.00828125 134.29623047 128.60640625 133.67333984 129.22265625 C133.16158203 129.77953125 132.64982422 130.33640625 132.12255859 130.91015625 C122.06113088 140.896685 105.67546752 140.35752769 92.47509003 140.45245171 C90.23415097 140.46911103 87.99336331 140.4923624 85.75250244 140.51734924 C79.38504879 140.58738569 73.01752886 140.64752893 66.64990234 140.69946289 C44.3711217 140.70199501 44.3711217 140.70199501 22.1942749 142.53990173 C9.44222285 144.20019972 -3.58474371 143.06707576 -16.38525391 142.41796875 C-18.10375599 142.33289972 -19.82226715 142.248014 -21.54078674 142.16329956 C-25.12700162 141.98568627 -28.7130763 141.80551286 -32.29907227 141.62353516 C-35.92618574 141.43967263 -39.55344352 141.25931716 -43.1809082 141.08251953 C-77.49348693 139.40975497 -77.49348693 139.40975497 -91.79931641 138.27734375 C-92.66535995 138.21531769 -93.5314035 138.15329163 -94.4236908 138.08938599 C-101.20870998 137.49760524 -107.57825794 136.09390882 -113.26416016 132.22265625 C-116.29065843 127.82047694 -116.74002892 123.45770239 -117.32666016 118.22265625 C-117.41278564 117.5992334 -117.49891113 116.97581055 -117.58764648 116.33349609 C-118.62700587 107.90200542 -118.51272738 99.42123644 -118.51196289 90.93994141 C-118.51413265 88.25667035 -118.53229045 85.57382276 -118.55126953 82.890625 C-118.62271113 60.98753906 -118.45944285 30.97002114 -102.32666016 14.22265625 C-94.12557737 6.32253063 -82.94647319 3.57484798 -72.26416016 0.53515625 C-71.55727051 0.33269287 -70.85038086 0.13022949 -70.12207031 -0.07836914 C-46.77409639 -6.45929753 -23.41353467 -4.64866913 0 0 Z " fill="#FCFBFA" transform="translate(307.32666015625,207.77734375)"/>
<path d="M0 0 C1.92422765 0.63775399 3.84846158 1.27548914 5.77284241 1.91278076 C10.51735386 3.48470772 15.26034837 5.06077387 19.99584961 6.65966797 C21.23471924 7.07748535 22.47358887 7.49530273 23.75 7.92578125 C24.85859375 8.30130127 25.9671875 8.67682129 27.109375 9.0637207 C30.97020563 10.31425157 34.2914866 11.11512709 38.3515625 11.2109375 C61.96705045 11.94264048 84.26469651 14.68393676 101.625 32.5 C102.14578125 33.05816406 102.6665625 33.61632812 103.203125 34.19140625 C106.31248964 37.32104936 109.81159687 39.98447789 113.24609375 42.74609375 C115.71445679 44.7663001 118.08246013 46.85011786 120.4375 49 C125.67865697 53.70958055 131.32660794 57.83048448 137 62 C147.74391725 69.94774392 158.05365938 78.32125206 168.22753906 86.97949219 C171.50069628 89.75748446 174.81563881 92.46662041 178.1875 95.125 C193.34427168 107.18095914 193.34427168 107.18095914 195 112 C195.82433492 119.86952292 196.09337081 126.70030453 191 133 C183.15537562 140.84462438 174.91883463 141.49441246 164.375 141.6875 C163.03857045 141.71965159 161.70214483 141.75196712 160.36572266 141.78442383 C145.39231244 142.1082938 130.41089256 142.13623522 115.43439484 142.18033218 C113.40145468 142.18740792 111.36855402 142.19771498 109.33563232 142.20883179 C84.41552551 142.32458709 84.41552551 142.32458709 72.76953125 141.01953125 C62.1446183 139.84963007 51.54044388 139.74934382 40.86328125 139.65625 C39.501782 139.64406402 39.501782 139.64406402 38.11277771 139.63163185 C30.54599429 139.5672799 22.97910998 139.52523872 15.41217041 139.48431396 C9.73144843 139.45289312 4.05088421 139.41363773 -1.62970924 139.36405945 C-4.25679923 139.34425816 -6.88376177 139.33573558 -9.51091003 139.32775879 C-24.2163258 139.23374125 -38.06285562 138.29305267 -49.41015625 127.7734375 C-59.07462506 116.99292437 -61.35001811 102.2626112 -63.9375 88.5 C-65.8693338 78.45875132 -67.95599134 68.47985599 -70.43920898 58.55859375 C-72.42510552 50.56487981 -73.20275997 42.91317064 -73.25 34.6875 C-73.270625 33.80126953 -73.29125 32.91503906 -73.3125 32.00195312 C-73.37082826 22.00594707 -71.09821371 13.28707971 -64 6 C-46.3944949 -10.22468117 -20.47673738 -6.86358699 0 0 Z " fill="#FCFBF9" transform="translate(476,537)"/>
<path d="M0 0 C0.99 0.495 0.99 0.495 2 1 C4.48997074 8.83655691 4.29385833 17.25635942 4.30496025 25.39317894 C4.30870053 27.60614604 4.32563664 29.81869431 4.34571838 32.03157043 C4.40035616 38.31645742 4.43140812 44.60140684 4.45629883 50.88647461 C4.54691486 71.7137304 5.30159803 91.96152043 9.1875 112.5 C11.58209205 126.43775375 10.80392514 141.30098117 2.4453125 153.23828125 C-2.77392287 159.60010598 -8.64980459 162.94666208 -16.08300781 166.2434082 C-32.4163131 173.58211456 -45.30218433 185.47668506 -58.30078125 197.515625 C-61.12560567 200.11560811 -64.00397819 202.64044743 -66.91015625 205.1484375 C-68.48422948 206.54303696 -70.02897198 207.97084684 -71.55859375 209.4140625 C-105.65096566 241.51732723 -105.65096566 241.51732723 -124.875 241.125 C-126.02742187 241.10695313 -127.17984375 241.08890625 -128.3671875 241.0703125 C-129.23601563 241.04710937 -130.10484375 241.02390625 -131 241 C-131 240.67 -131 240.34 -131 240 C-129.02 240 -127.04 240 -125 240 C-125.00666183 239.19488983 -125.01332367 238.38977966 -125.02018738 237.56027222 C-125.56905377 168.00482001 -125.56905377 168.00482001 -123.13305664 143.9987793 C-122.31382877 135.81709231 -121.85863908 127.72158123 -121.75390625 119.49609375 C-121.74023514 118.51224701 -121.72656403 117.52840027 -121.71247864 116.51473999 C-121.65288567 111.72234293 -121.62617419 106.93236727 -121.64282227 102.13964844 C-121.60074855 90.7043175 -120.43263991 83.83325498 -112.625 75.125 C-103.76878593 66.74974137 -93.23288102 60.11532246 -83.19335938 53.26416016 C-73.72385773 46.78755066 -64.35373947 40.12890813 -55.25390625 33.140625 C-46.78194337 26.63888605 -38.06044339 20.56298751 -29.1875 14.625 C-28.32936203 14.04777695 -28.32936203 14.04777695 -27.45388794 13.45889282 C-6.50327187 -0.60811598 -6.50327187 -0.60811598 0 0 Z " fill="#CAC8C8" transform="translate(790,301)"/>
<path d="M0 0 C2.35350679 1.59629156 2.81703527 2.51965444 3.796875 5.21875 C3.95559774 8.16290492 3.99164948 11.00720586 3.9375 13.94921875 C3.91854857 15.94449802 3.899675 17.93977804 3.88085938 19.93505859 C3.86659912 21.07344177 3.85233887 22.21182495 3.83764648 23.38470459 C3.79193689 27.68311695 3.77364975 31.98117582 3.75976562 36.27978516 C3.73325438 44.0061552 3.6819265 51.73205612 3.61293793 59.45816231 C3.57320479 63.9707428 3.5410906 68.48311418 3.52587891 72.99584961 C3.51068696 77.43052753 3.47626369 81.86468043 3.42856598 86.29912376 C3.41385295 87.96908197 3.40583985 89.63911454 3.40499115 91.30913734 C3.39455659 101.51144285 3.05864878 109.77315017 -3.453125 118.09375 C-14.51485981 126.64145417 -31.22603069 124.45776313 -44.515625 124.46875 C-45.79028625 124.47026062 -45.79028625 124.47026062 -47.09069824 124.47180176 C-112.91183893 124.41949683 -112.91183893 124.41949683 -127.31640625 111.29296875 C-130.9356901 107.32553735 -132.93603723 104.48899608 -133.578125 99.03125 C-132.31003477 86.13899934 -117.47233844 75.3219775 -108.7097168 66.5949707 C-107.13538345 65.0260264 -105.56650911 63.45176442 -103.99804688 61.87695312 C-99.0991041 56.97550462 -94.17709316 52.15750788 -88.85693359 47.70703125 C-87.0279415 46.06110037 -85.47116655 44.28999442 -83.890625 42.40625 C-79.42623493 37.19112169 -74.43929595 32.64547979 -69.203125 28.21875 C-68.366604 27.5064624 -68.366604 27.5064624 -67.51318359 26.77978516 C-56.17143027 17.28706042 -43.72386869 11.06984634 -30.203125 5.21875 C-29.41244629 4.86989746 -28.62176758 4.52104492 -27.80712891 4.16162109 C-19.03065023 0.33876154 -9.54599449 -3.38510443 0 0 Z " fill="#FCFAF9" transform="translate(831.203125,555.78125)"/>
<path d="M0 0 C0.33 0 0.66 0 1 0 C1.04633899 9.18815053 1.08187715 18.37626083 1.10362434 27.56450272 C1.11406186 31.83096697 1.12822048 36.09735128 1.15087891 40.36376953 C1.17260842 44.48104386 1.18456887 48.59824129 1.18975449 52.71556854 C1.19345005 54.28644776 1.20066652 55.85732277 1.21146011 57.42816925 C1.22597658 59.62831216 1.22797789 61.82813722 1.22705078 64.02832031 C1.231492 65.28074524 1.23593323 66.53317017 1.24050903 67.82354736 C1.01350792 70.82159813 0.58299537 72.48812257 -1 75 C-2.21998585 70.31454712 -2.05204258 65.8492841 -1.9140625 61.0546875 C-1.89314041 60.17920761 -1.87221832 59.30372772 -1.85066223 58.40171814 C-1.78108187 55.55930454 -1.70326583 52.71718659 -1.625 49.875 C-1.57529188 47.92798641 -1.52589517 45.98096485 -1.47680664 44.03393555 C-1.09843146 29.35173784 -0.62031285 14.67408889 0 0 Z " fill="#171717" transform="translate(192,411)"/>
<path d="M0 0 C0.33 0 0.66 0 1 0 C1 6.27 1 12.54 1 19 C0.01 19.33 -0.98 19.66 -2 20 C-2.26618595 13.04958914 -1.6120509 6.76485645 0 0 Z " fill="#E2E2E1" transform="translate(502,413)"/>
<path d="M0 0 C0.66 0.33 1.32 0.66 2 1 C-3.28 6.28 -8.56 11.56 -14 17 C-14 12.08113186 -10.31173311 9.3948461 -7 6 C-4.72300284 3.91201998 -2.39497582 1.9550823 0 0 Z " fill="#C3C2C1" transform="translate(687,368)"/>
<path d="M0 0 C-0.33 0.66 -0.66 1.32 -1 2 C-7.56016826 3.49094733 -14.30976284 3.09054456 -21 3 C-21 2.67 -21 2.34 -21 2 C-13.90294338 0.65504172 -7.2274605 -0.24091535 0 0 Z " fill="#0C0C0C" transform="translate(345,824)"/>
<path d="M0 0 C1.37432457 3.81756824 0.67975039 7.07255329 0 11 C-0.99 11 -1.98 11 -3 11 C-2.8864371 9.35333797 -2.75882619 7.70763918 -2.625 6.0625 C-2.55539062 5.14597656 -2.48578125 4.22945313 -2.4140625 3.28515625 C-2.27742188 2.53105469 -2.14078125 1.77695312 -2 1 C-1.34 0.67 -0.68 0.34 0 0 Z " fill="#E4E4E3" transform="translate(506,395)"/>
<path d="M0 0 C0.33 0 0.66 0 1 0 C1.0270043 1.45823212 1.04639787 2.91660675 1.0625 4.375 C1.07410156 5.18710937 1.08570313 5.99921875 1.09765625 6.8359375 C1 9 1 9 0 11 C-0.66 11 -1.32 11 -2 11 C-2.25 3.375 -2.25 3.375 0 0 Z " fill="#EBEAE9" transform="translate(510,357)"/>
</svg>
